<svg width="80" height="80" viewBox="0 0 80 80" xmlns="http://www.w3.org/2000/svg">
  <!-- Background -->
  <rect width="80" height="80" fill="#374151"/>
  
  <!-- Green graphic element with glow effect -->
  <g transform="translate(10, 10)">
    <!-- Glow effect -->
    <path d="M15 40 Q15 30 25 30 Q35 30 35 40 L35 60 Q35 70 25 70 Q15 70 15 60 Z" fill="#10B981" opacity="0.3" filter="blur(2px)"/>
    <rect x="45" y="50" width="6" height="20" fill="#10B981" opacity="0.3" filter="blur(1px)"/>
    <rect x="53" y="40" width="6" height="30" fill="#10B981" opacity="0.3" filter="blur(1px)"/>
    <rect x="61" y="30" width="6" height="40" fill="#10B981" opacity="0.3" filter="blur(1px)"/>
    
    <!-- Main elements -->
    <!-- Person silhouette -->
    <path d="M15 40 Q15 30 25 30 Q35 30 35 40 L35 60 Q35 70 25 70 Q15 70 15 60 Z" fill="#10B981"/>
    
    <!-- Bar chart -->
    <rect x="45" y="50" width="6" height="20" fill="#10B981"/>
    <rect x="53" y="40" width="6" height="30" fill="#10B981"/>
    <rect x="61" y="30" width="6" height="40" fill="#10B981"/>
    
    <!-- Line graph with upward trend -->
    <path d="M15 20 Q25 15 35 10 Q45 5 55 0" stroke="#10B981" stroke-width="2" fill="none"/>
    <circle cx="15" cy="20" r="2" fill="#10B981"/>
    <circle cx="35" cy="10" r="2" fill="#10B981"/>
    <circle cx="55" cy="0" r="2" fill="#10B981"/>
    
    <!-- Upward arrow -->
    <path d="M55 0 L63 -8 L58 -3 L68 -3 L58 7 Z" fill="#10B981"/>
  </g>
</svg>
